<svg width="14" height="14" viewBox="0 0 14 14" fill="none" xmlns="http://www.w3.org/2000/svg">
<path fill-rule="evenodd" clip-rule="evenodd" d="M7.07823 0.279785C5.27437 0.279785 5.04971 0.287532 4.34034 0.320732C1.92781 0.431398 0.588739 1.76936 0.478072 4.18189C0.445979 4.89127 0.438232 5.11702 0.438232 6.91979C0.438232 8.72365 0.445979 8.94941 0.478072 9.65768C0.588739 12.0691 1.92781 13.4093 4.34034 13.5199C5.04971 13.552 5.27437 13.5598 7.07823 13.5598C8.8821 13.5598 9.10786 13.552 9.81723 13.5199C12.2253 13.4093 13.5699 12.0713 13.6784 9.65768C13.7105 8.94941 13.7182 8.72365 13.7182 6.91979C13.7182 5.11702 13.7105 4.89127 13.6784 4.18189C13.5699 1.77268 12.2298 0.430292 9.81723 0.320732C9.10786 0.287532 8.8821 0.279785 7.07823 0.279785ZM7.07505 1.47777C8.84793 1.47777 9.0582 1.48441 9.75872 1.51651C11.5593 1.5984 12.3981 2.45164 12.4811 4.2378C12.5121 4.93832 12.5187 5.14748 12.5187 6.92036C12.5187 8.69324 12.5121 8.90351 12.4811 9.60292C12.3981 11.388 11.5604 12.2434 9.75872 12.3253C9.0582 12.3563 8.84904 12.3641 7.07505 12.3641C5.30217 12.3641 5.0919 12.3574 4.39249 12.3253C2.58862 12.2423 1.75309 11.3858 1.67009 9.60292C1.6391 8.90351 1.63136 8.69324 1.63136 6.92036C1.63136 5.14748 1.6391 4.93721 1.67009 4.2378C1.75198 2.45053 2.59084 1.59729 4.39249 1.5154C5.0919 1.48331 5.30217 1.47777 7.07505 1.47777ZM3.66745 6.92026C3.66745 5.03672 5.19465 3.51063 7.07709 3.51063C8.95953 3.51063 10.4867 5.03783 10.4867 6.92026C10.4867 8.80381 8.95953 10.3299 7.07709 10.3299C5.19465 10.3299 3.66745 8.80381 3.66745 6.92026ZM7.08039 9.13366C5.85753 9.13366 4.86706 8.14319 4.86706 6.92033C4.86706 5.69857 5.85753 4.70699 7.08039 4.70699C8.30215 4.70699 9.29483 5.69746 9.29483 6.92033C9.29483 8.14319 8.30215 9.13366 7.08039 9.13366ZM9.82761 3.3753C9.82761 2.93484 10.1851 2.5785 10.6244 2.5785C11.066 2.5785 11.4223 2.93484 11.4223 3.3753C11.4223 3.81575 11.0649 4.1721 10.6244 4.1721C10.184 4.1721 9.82761 3.81464 9.82761 3.3753Z" fill="#122038"/>
</svg>
