<svg width="14" height="12" viewBox="0 0 14 12" fill="none" xmlns="http://www.w3.org/2000/svg">
<path d="M13.6418 2.21814C13.1538 2.43505 12.6281 2.58113 12.077 2.64753C12.6403 2.30999 13.0708 1.77658 13.2755 1.14025C12.7487 1.45233 12.1655 1.67919 11.5447 1.80093C11.0489 1.27083 10.3395 0.939941 9.55711 0.939941C7.79751 0.939941 6.50492 2.58113 6.90222 4.28539C4.63908 4.17141 2.63048 3.08687 1.28699 1.43905C0.57319 2.66302 0.917363 4.26547 2.13027 5.07666C1.68428 5.06227 1.26486 4.93943 0.897443 4.73581C0.867563 5.99741 1.77282 7.17822 3.08311 7.44161C2.7002 7.54563 2.27967 7.56998 1.8525 7.48809C2.19888 8.57041 3.20706 9.35725 4.39783 9.37938C3.25022 10.278 1.80823 10.6797 0.361816 10.5093C1.56808 11.2828 2.999 11.7333 4.53727 11.7333C9.59695 11.7333 12.4544 7.46042 12.2817 3.62803C12.8151 3.24513 13.2766 2.76483 13.6418 2.21814Z" fill="#122038"/>
</svg>
